#N canvas 45 22 1268 715 10;
#X declare -lib mrpeach;
#X obj 637 -120 cnv 100 600 550 empty empty empty 100 100 0 14 -204800
-66577 0;
#X obj 761 -4 soundfiler;
#N canvas 0 22 450 300 (subpatch) 0;
#X array sample1 211680 float 2;
#X coords 0 1 211680 -1 200 140 1 0 0;
#X restore 857 278 graph;
#X obj 702 -85 openpanel;
#X obj 702 -109 bng 15 250 50 0 empty empty empty 0 -6 0 8 -262144
-1 -1;
#X text 727 -112 load sound file;
#X msg 702 -59 read -resize \$1 sample1;
#X obj 761 29 expr 44100 / $f1;
#X obj 764 90 phasor~;
#X obj 764 130 *~;
#X obj 873 117 unsig~ 50;
#X obj 877 162 hsl 200 15 0 1 0 0 empty empty empty -2 -6 0 8 -262144
-1 -1 18134 1;
#X obj 764 63 *;
#X obj 877 25 hsl 200 15 -2 2 0 0 empty empty empty -2 -6 0 8 -262144
-1 -1 9950 1;
#X text 990 0 playback speed;
#X obj 865 46 t b f;
#X text 959 138 playback position;
#X obj 764 162 tabread4~ sample1;
#X obj 764 292 *~;
#X obj 755 405 dac~;
#X obj 763 330 *~;
#X obj 820 335 r lb;
#X msg 820 365 1;
#X obj 789 224 vsl 15 50 0 1 0 0 empty empty empty 0 -9 0 10 -228856
-1 -45076 2450 1;
#X obj 861 -92 r lb;
#X floatatom 874 195 5 0 0 0 - - -;
#X obj 789 191 r DJdb;
#X msg 642 32 0;
#X obj 669 33 bng 15 250 50 0 empty empty empty 17 7 0 10 -262144 -1
-1;
#X obj 132 -269 cnv 50 500 300 empty empty empty 20 12 0 14 -204786
-66577 0;
#X obj 243 -267 import mrpeach;
#X obj 137 -230 unpackOSC;
#X obj 137 -201 routeOSC /test;
#X obj 22 -268 cnv 50 100 150 empty empty empty 20 12 0 14 -262130
-66577 0;
#X obj 35 -264 loadbang;
#X obj 35 -143 s lb;
#X obj 137 2 print;
#X obj 340 -227 s DJplay;
#X obj 447 -66 s DJspeed;
#X obj 874 -5 r DJspeed;
#X obj 917 195 s playpostion;
#X floatatom 993 86 5 0 0 0 - - -;
#X obj 194 -95 change;
#X obj 243 -94 change;
#X obj 295 -94 change;
#X obj 346 -94 change;
#X obj 396 -94 change;
#X obj 447 -95 change;
#X obj 145 -95 change;
#X obj 145 -18 s DJplayorstop;
#X obj 642 -21 r DJplayorstop;
#X obj 642 3 sel 0;
#X obj 672 -254 bng 15 250 50 0 empty empty empty 17 7 0 10 -262144
-1 -1;
#X obj 672 -230 openpanel;
#X obj 672 -169 soundfiler;
#X obj 638 -168 r lb;
#X obj 151 246 bng 15 250 50 0 empty empty empty 17 7 0 10 -262144
-1 -1;
#X obj 151 405 dac~;
#X obj 151 218 t b;
#X obj 151 372 *~;
#X msg 166 316 0;
#N canvas 0 22 450 278 (subpatch) 0;
#X array effect 7331 float 2;
#X coords 0 1 7331 -1 100 50 1 0 0;
#X restore 488 138 graph;
#X msg 638 -142 read -resize kick.wav kick;
#N canvas 0 22 450 278 (subpatch) 0;
#X array kick 19845 float 2;
#X coords 0 1 19845 -1 100 50 1 0 0;
#X restore 150 140 graph;
#N canvas 0 22 450 278 (subpatch) 0;
#X array hihat 2425 float 2;
#X coords 0 1 2425 -1 100 50 1 0 0;
#X restore 263 139 graph;
#N canvas 0 22 450 278 (subpatch) 0;
#X array snare 10391 float 2;
#X coords 0 1 10391 -1 100 50 1 0 0;
#X restore 375 138 graph;
#X obj 842 -255 bng 15 250 50 0 empty empty empty 17 7 0 10 -262144
-1 -1;
#X obj 842 -231 openpanel;
#X obj 842 -170 soundfiler;
#X obj 808 -169 r lb;
#X obj 1021 -255 bng 15 250 50 0 empty empty empty 17 7 0 10 -262144
-1 -1;
#X obj 1021 -231 openpanel;
#X obj 1021 -170 soundfiler;
#X obj 987 -169 r lb;
#X obj 1200 -255 bng 15 250 50 0 empty empty empty 17 7 0 10 -262144
-1 -1;
#X obj 1200 -231 openpanel;
#X obj 1200 -170 soundfiler;
#X obj 1166 -169 r lb;
#X msg 672 -199 read -resize \$1 kick;
#X msg 842 -200 read -resize \$1 hihat;
#X msg 987 -143 read -resize snare.wav snare;
#X msg 1021 -200 read -resize \$1 snare;
#X msg 1166 -143 read -resize effect.wav effect;
#X msg 1200 -200 read -resize \$1 effect;
#X obj 151 270 tabplay~ kick;
#X obj 151 194 r kick;
#X obj 266 246 bng 15 250 50 0 empty empty empty 17 7 0 10 -262144
-1 -1;
#X obj 266 405 dac~;
#X obj 266 218 t b;
#X obj 266 372 *~;
#X msg 281 316 0;
#X obj 380 247 bng 15 250 50 0 empty empty empty 17 7 0 10 -262144
-1 -1;
#X obj 380 406 dac~;
#X obj 380 219 t b;
#X obj 380 373 *~;
#X msg 395 317 0;
#X obj 492 248 bng 15 250 50 0 empty empty empty 17 7 0 10 -262144
-1 -1;
#X obj 492 407 dac~;
#X obj 492 220 t b;
#X obj 492 374 *~;
#X msg 507 318 0;
#X obj 266 194 r hihat;
#X obj 380 195 r snare;
#X obj 492 196 r effect;
#X obj 157 295 r kickdb;
#X obj 272 295 r hihatdb;
#X obj 386 296 r snaredb;
#X obj 498 297 r effectdb;
#X obj 132 35 cnv 30 500 90 empty empty empty 20 12 0 14 -203904 -66577
0;
#X obj 151 43 vsl 15 50 0 1 0 0 empty empty empty 0 -9 0 10 -228856
-1 -45076 2450 1;
#X obj 215 44 vsl 15 50 0 1 0 0 empty empty empty 0 -9 0 10 -228856
-1 -45076 2450 1;
#X obj 286 43 vsl 15 50 0 1 0 0 empty empty empty 0 -9 0 10 -228856
-1 -45076 2450 1;
#X obj 357 42 vsl 15 50 0 1 0 0 empty empty empty 0 -9 0 10 -228856
-1 -45076 2450 1;
#X text 174 40 kick;
#X text 239 41 hihat;
#X text 315 41 snare;
#X text 382 43 effect;
#X obj 215 102 s hihatdb;
#X obj 357 101 s effectdb;
#X obj 430 41 vsl 15 50 0 1 0 0 empty empty empty 0 -9 0 10 -228856
-1 -45076 2450 1;
#X text 455 38 DJ;
#X obj 430 100 s DJdb;
#X obj 194 -69 sel 1;
#X obj 243 -69 sel 1;
#X obj 295 -68 sel 1;
#X obj 346 -68 sel 1;
#N canvas 76 160 974 451 key 1;
#X obj 124 18 inlet;
#X obj 124 53 sel 1 2 3 4 5 6 7 8 9 10 11 12 13 14 15 16 17 18 19 20
21 22 23 24;
#X msg -129 150 60;
#X msg -95 150 61;
#X msg -58 149 62;
#X msg -22 149 63;
#X msg 12 149 64;
#X msg 46 150 65;
#X msg 80 150 66;
#X msg 111 150 67;
#X msg 146 149 68;
#X msg 182 149 69;
#X msg 216 149 70;
#X msg 250 150 71;
#X msg 281 151 72;
#X msg 315 151 73;
#X msg 351 150 74;
#X msg 387 150 75;
#X msg 421 150 76;
#X msg 455 151 77;
#X msg 491 149 78;
#X msg 525 149 79;
#X msg 561 148 80;
#X msg 597 148 81;
#X msg 634 148 82;
#X msg 667 149 83;
#X msg 704 148 0;
#X obj 279 413 noteout 1;
#X obj 425 335 r lb;
#X obj 572 94 bng 15 250 50 0 empty empty empty 17 7 0 10 -262144 -1
-1;
#X msg 425 376 98;
#X connect 0 0 1 0;
#X connect 1 0 2 0;
#X connect 1 1 3 0;
#X connect 1 2 4 0;
#X connect 1 3 5 0;
#X connect 1 4 6 0;
#X connect 1 5 7 0;
#X connect 1 6 8 0;
#X connect 1 7 9 0;
#X connect 1 8 10 0;
#X connect 1 9 11 0;
#X connect 1 10 12 0;
#X connect 1 11 13 0;
#X connect 1 12 14 0;
#X connect 1 13 15 0;
#X connect 1 14 16 0;
#X connect 1 15 17 0;
#X connect 1 16 18 0;
#X connect 1 17 19 0;
#X connect 1 18 20 0;
#X connect 1 19 21 0;
#X connect 1 20 22 0;
#X connect 1 21 23 0;
#X connect 1 22 24 0;
#X connect 1 23 25 0;
#X connect 1 24 26 0;
#X connect 2 0 27 0;
#X connect 3 0 27 0;
#X connect 4 0 27 0;
#X connect 5 0 27 0;
#X connect 6 0 27 0;
#X connect 7 0 27 0;
#X connect 8 0 27 0;
#X connect 9 0 27 0;
#X connect 10 0 27 0;
#X connect 11 0 27 0;
#X connect 12 0 27 0;
#X connect 13 0 27 0;
#X connect 14 0 27 0;
#X connect 15 0 27 0;
#X connect 16 0 27 0;
#X connect 17 0 27 0;
#X connect 18 0 27 0;
#X connect 19 0 27 0;
#X connect 20 0 27 0;
#X connect 21 0 27 0;
#X connect 22 0 27 0;
#X connect 23 0 27 0;
#X connect 24 0 27 0;
#X connect 25 0 27 0;
#X connect 28 0 30 0;
#X connect 30 0 27 1;
#X restore 396 -67 pd key;
#X obj 137 -173 unpack 0 0 0 0 0 0 0 0 0 0 0 0 0 0 0 0 0 0 0 0 0;
#X obj 403 -131 pack 0 0 0 0 0 0 0 0 0 0 0 0 0 0;
#N canvas 78 191 1238 598 sequencer 1;
#X obj 476 14 inlet;
#X obj 476 48 unpack 0 0 0 0 0 0 0 0 0 0 0 0 0 0;
#X floatatom 285 105 5 0 0 0 - - -;
#X floatatom 325 105 5 0 0 0 - - -;
#X floatatom 364 104 5 0 0 0 - - -;
#X floatatom 404 104 5 0 0 0 - - -;
#X floatatom 445 103 5 0 0 0 - - -;
#X floatatom 485 103 5 0 0 0 - - -;
#X floatatom 524 102 5 0 0 0 - - -;
#X floatatom 564 102 5 0 0 0 - - -;
#X floatatom 602 102 5 0 0 0 - - -;
#X floatatom 642 102 5 0 0 0 - - -;
#X floatatom 681 101 5 0 0 0 - - -;
#X floatatom 721 101 5 0 0 0 - - -;
#X floatatom 761 101 5 0 0 0 - - -;
#X floatatom 801 101 5 0 0 0 - - -;
#X obj -207 347 r lb;
#X obj -207 396 mtof;
#X obj -207 510 *~;
#X obj -140 424 sel 0 1;
#X msg -147 452 0 10;
#X msg -107 453 1 10;
#X obj 251 131 change;
#X obj 523 129 change;
#X obj 568 130 change;
#X obj 616 129 change;
#X obj 663 129 change;
#X obj 707 129 change;
#X obj 753 129 change;
#X obj 798 129 change;
#X obj 842 128 change;
#X obj 339 131 change;
#X obj 385 131 change;
#X obj 430 130 change;
#X obj 475 131 change;
#X obj 296 131 change;
#X obj -66 380 r lb;
#X obj -66 429 mtof;
#X obj -66 455 osc~;
#X obj -66 483 /~ 14;
#X obj -66 513 *~;
#X obj -11 424 sel 0 1;
#X msg -18 452 0 10;
#X msg 22 453 1 10;
#X obj 65 377 r lb;
#X obj 65 426 mtof;
#X obj 65 452 osc~;
#X obj 65 480 /~ 14;
#X obj 65 510 *~;
#X obj 115 423 sel 0 1;
#X msg 108 451 0 10;
#X msg 148 452 1 10;
#X obj 206 380 r lb;
#X obj 206 429 mtof;
#X obj 206 455 osc~;
#X obj 206 483 /~ 14;
#X obj 206 513 *~;
#X obj 256 425 sel 0 1;
#X msg 249 453 0 10;
#X msg 289 454 1 10;
#X obj 329 376 r lb;
#X obj 329 425 mtof;
#X obj 329 451 osc~;
#X obj 329 479 /~ 14;
#X obj 329 509 *~;
#X obj 379 422 sel 0 1;
#X msg 372 450 0 10;
#X msg 412 451 1 10;
#X obj 470 379 r lb;
#X obj 470 428 mtof;
#X obj 470 454 osc~;
#X obj 470 482 /~ 14;
#X obj 470 512 *~;
#X obj 520 423 sel 0 1;
#X msg 513 451 0 10;
#X msg 553 452 1 10;
#X obj 596 376 r lb;
#X obj 596 425 mtof;
#X obj 596 451 osc~;
#X obj 596 479 /~ 14;
#X obj 596 509 *~;
#X obj 646 421 sel 0 1;
#X msg 639 449 0 10;
#X msg 679 450 1 10;
#X obj 737 379 r lb;
#X obj 737 428 mtof;
#X obj 737 454 osc~;
#X obj 737 482 /~ 14;
#X obj 737 512 *~;
#X obj 788 426 sel 0 1;
#X msg 781 454 0 10;
#X msg 821 455 1 10;
#X obj 868 376 r lb;
#X obj 868 425 mtof;
#X obj 868 451 osc~;
#X obj 868 479 /~ 14;
#X obj 868 509 *~;
#X obj 920 421 sel 0 1;
#X msg 913 449 0 10;
#X msg 953 450 1 10;
#X obj 1009 379 r lb;
#X obj 1009 428 mtof;
#X obj 1009 454 osc~;
#X obj 1009 482 /~ 14;
#X obj 1009 512 *~;
#X obj 1060 427 sel 0 1;
#X msg 1053 455 0 10;
#X msg 1093 456 1 10;
#X obj 1132 375 r lb;
#X obj 1132 424 mtof;
#X obj 1132 450 osc~;
#X obj 1132 478 /~ 14;
#X obj 1132 508 *~;
#X obj 1188 428 sel 0 1;
#X msg 1181 456 0 10;
#X msg 1221 457 1 10;
#X obj 1273 378 r lb;
#X obj 1273 427 mtof;
#X obj 1273 453 osc~;
#X obj 1273 481 /~ 14;
#X obj 1273 511 *~;
#X obj 1323 427 sel 0 1;
#X msg 1316 455 0 10;
#X msg 1356 456 1 10;
#X obj 1393 386 r lb;
#X obj 1393 435 mtof;
#X obj 1393 461 osc~;
#X obj 1393 489 /~ 14;
#X obj 1393 519 *~;
#X obj 1447 431 sel 0 1;
#X msg 1440 459 0 10;
#X msg 1480 460 1 10;
#X obj 1534 389 r lb;
#X obj 1534 438 mtof;
#X obj 1534 464 osc~;
#X obj 1534 492 /~ 14;
#X obj 1534 522 *~;
#X obj 1584 435 sel 0 1;
#X msg 1577 463 0 10;
#X msg 1617 464 1 10;
#X obj -200 549 dac~;
#X obj -70 545 dac~;
#X obj 57 543 dac~;
#X obj 200 543 dac~;
#X obj 327 542 dac~;
#X obj 466 544 dac~;
#X obj 594 542 dac~;
#X obj 734 540 dac~;
#X obj 866 539 dac~;
#X obj 1009 541 dac~;
#X obj 1129 539 dac~;
#X obj 1270 538 dac~;
#X obj 1390 546 dac~;
#X obj 1533 547 dac~;
#X obj -207 452 osc~ 440;
#X obj -144 480 line~;
#X floatatom -207 425 5 0 0 0 - - -;
#X obj -207 480 /~ 14;
#X obj -9 483 line~;
#X obj 113 482 line~;
#X obj 256 481 line~;
#X obj 376 481 line~;
#X obj 522 479 line~;
#X obj 648 477 line~;
#X obj 792 482 line~;
#X obj 919 479 line~;
#X obj 1062 481 line~;
#X obj 1189 481 line~;
#X obj 1325 481 line~;
#X obj 1451 488 line~;
#X obj 1587 493 line~;
#X msg 1534 413 60;
#X msg 1393 410 62;
#X msg 1273 402 64;
#X msg 1132 399 65;
#X msg 1009 403 67;
#X msg 868 400 69;
#X msg 737 403 71;
#X msg 596 400 72;
#X msg 470 403 74;
#X msg 329 400 76;
#X msg 206 403 77;
#X msg 65 401 79;
#X msg -66 404 81;
#X msg -207 371 83;
#X connect 0 0 1 0;
#X connect 1 0 2 0;
#X connect 1 1 3 0;
#X connect 1 2 4 0;
#X connect 1 3 5 0;
#X connect 1 4 6 0;
#X connect 1 5 7 0;
#X connect 1 6 8 0;
#X connect 1 7 9 0;
#X connect 1 8 10 0;
#X connect 1 9 11 0;
#X connect 1 10 12 0;
#X connect 1 11 13 0;
#X connect 1 12 14 0;
#X connect 1 13 15 0;
#X connect 2 0 22 0;
#X connect 3 0 35 0;
#X connect 4 0 31 0;
#X connect 5 0 32 0;
#X connect 6 0 33 0;
#X connect 7 0 34 0;
#X connect 8 0 23 0;
#X connect 9 0 24 0;
#X connect 10 0 25 0;
#X connect 11 0 26 0;
#X connect 12 0 27 0;
#X connect 13 0 28 0;
#X connect 14 0 29 0;
#X connect 15 0 30 0;
#X connect 16 0 184 0;
#X connect 17 0 156 0;
#X connect 18 0 140 0;
#X connect 18 0 140 1;
#X connect 19 0 20 0;
#X connect 19 1 21 0;
#X connect 20 0 155 0;
#X connect 21 0 155 0;
#X connect 22 0 19 0;
#X connect 23 0 81 0;
#X connect 24 0 89 0;
#X connect 25 0 97 0;
#X connect 26 0 105 0;
#X connect 27 0 113 0;
#X connect 28 0 121 0;
#X connect 29 0 129 0;
#X connect 30 0 137 0;
#X connect 31 0 49 0;
#X connect 32 0 57 0;
#X connect 33 0 65 0;
#X connect 34 0 73 0;
#X connect 35 0 41 0;
#X connect 36 0 183 0;
#X connect 37 0 38 0;
#X connect 38 0 39 0;
#X connect 39 0 40 0;
#X connect 40 0 141 0;
#X connect 40 0 141 1;
#X connect 41 0 42 0;
#X connect 41 1 43 0;
#X connect 42 0 158 0;
#X connect 43 0 158 0;
#X connect 44 0 182 0;
#X connect 45 0 46 0;
#X connect 46 0 47 0;
#X connect 47 0 48 0;
#X connect 48 0 142 0;
#X connect 48 0 142 1;
#X connect 49 0 50 0;
#X connect 49 1 51 0;
#X connect 50 0 159 0;
#X connect 51 0 159 0;
#X connect 52 0 181 0;
#X connect 53 0 54 0;
#X connect 54 0 55 0;
#X connect 55 0 56 0;
#X connect 56 0 143 0;
#X connect 56 0 143 1;
#X connect 57 0 58 0;
#X connect 57 1 59 0;
#X connect 58 0 160 0;
#X connect 59 0 160 0;
#X connect 60 0 180 0;
#X connect 61 0 62 0;
#X connect 62 0 63 0;
#X connect 63 0 64 0;
#X connect 64 0 144 0;
#X connect 64 0 144 1;
#X connect 65 0 66 0;
#X connect 65 1 67 0;
#X connect 66 0 161 0;
#X connect 67 0 161 0;
#X connect 68 0 179 0;
#X connect 69 0 70 0;
#X connect 70 0 71 0;
#X connect 71 0 72 0;
#X connect 72 0 145 0;
#X connect 72 0 145 1;
#X connect 73 0 74 0;
#X connect 73 1 75 0;
#X connect 74 0 162 0;
#X connect 75 0 162 0;
#X connect 76 0 178 0;
#X connect 77 0 78 0;
#X connect 78 0 79 0;
#X connect 79 0 80 0;
#X connect 80 0 146 0;
#X connect 80 0 146 1;
#X connect 81 0 82 0;
#X connect 81 1 83 0;
#X connect 82 0 163 0;
#X connect 83 0 163 0;
#X connect 84 0 177 0;
#X connect 85 0 86 0;
#X connect 86 0 87 0;
#X connect 87 0 88 0;
#X connect 88 0 147 0;
#X connect 88 0 147 1;
#X connect 89 0 90 0;
#X connect 89 1 91 0;
#X connect 90 0 164 0;
#X connect 91 0 164 0;
#X connect 92 0 176 0;
#X connect 93 0 94 0;
#X connect 94 0 95 0;
#X connect 95 0 96 0;
#X connect 96 0 148 0;
#X connect 96 0 148 1;
#X connect 97 0 98 0;
#X connect 97 1 99 0;
#X connect 98 0 165 0;
#X connect 99 0 165 0;
#X connect 100 0 175 0;
#X connect 101 0 102 0;
#X connect 102 0 103 0;
#X connect 103 0 104 0;
#X connect 104 0 149 0;
#X connect 104 0 149 1;
#X connect 105 0 106 0;
#X connect 105 1 107 0;
#X connect 106 0 166 0;
#X connect 107 0 166 0;
#X connect 108 0 174 0;
#X connect 109 0 110 0;
#X connect 110 0 111 0;
#X connect 111 0 112 0;
#X connect 112 0 150 0;
#X connect 112 0 150 1;
#X connect 113 0 114 0;
#X connect 113 1 115 0;
#X connect 114 0 167 0;
#X connect 115 0 167 0;
#X connect 116 0 173 0;
#X connect 117 0 118 0;
#X connect 118 0 119 0;
#X connect 119 0 120 0;
#X connect 120 0 151 0;
#X connect 120 0 151 1;
#X connect 121 0 122 0;
#X connect 121 1 123 0;
#X connect 122 0 168 0;
#X connect 123 0 168 0;
#X connect 124 0 172 0;
#X connect 125 0 126 0;
#X connect 126 0 127 0;
#X connect 127 0 128 0;
#X connect 128 0 152 0;
#X connect 128 0 152 1;
#X connect 129 0 130 0;
#X connect 129 1 131 0;
#X connect 130 0 169 0;
#X connect 131 0 169 0;
#X connect 132 0 171 0;
#X connect 133 0 134 0;
#X connect 134 0 135 0;
#X connect 135 0 136 0;
#X connect 136 0 153 0;
#X connect 136 0 153 1;
#X connect 137 0 138 0;
#X connect 137 1 139 0;
#X connect 138 0 170 0;
#X connect 139 0 170 0;
#X connect 154 0 157 0;
#X connect 155 0 18 1;
#X connect 156 0 154 0;
#X connect 157 0 18 0;
#X connect 158 0 40 1;
#X connect 159 0 48 1;
#X connect 160 0 56 1;
#X connect 161 0 64 1;
#X connect 162 0 72 1;
#X connect 163 0 80 1;
#X connect 164 0 88 1;
#X connect 165 0 96 1;
#X connect 166 0 104 1;
#X connect 167 0 112 1;
#X connect 168 0 120 1;
#X connect 169 0 128 1;
#X connect 170 0 136 1;
#X connect 171 0 133 0;
#X connect 172 0 125 0;
#X connect 173 0 117 0;
#X connect 174 0 109 0;
#X connect 175 0 101 0;
#X connect 176 0 93 0;
#X connect 177 0 85 0;
#X connect 178 0 77 0;
#X connect 179 0 69 0;
#X connect 180 0 61 0;
#X connect 181 0 53 0;
#X connect 182 0 45 0;
#X connect 183 0 37 0;
#X connect 184 0 17 0;
#X restore 501 -96 pd sequencer;
#X obj 194 -42 s kick;
#X obj 243 -42 s hihat;
#X obj 295 -42 s snare;
#X obj 346 -42 s effect;
#X obj 266 270 tabplay~ hihat;
#X obj 492 272 tabplay~ effect;
#X obj 380 271 tabplay~ snare;
#X obj 286 101 s snaredb;
#X obj 174 57 r lb;
#X obj 151 103 s kickdb;
#X msg 174 79 0.5;
#X obj 236 57 r lb;
#X msg 236 79 0.5;
#X obj 308 56 r lb;
#X msg 308 78 0.5;
#X obj 379 58 r lb;
#X msg 379 80 0.5;
#X obj 451 55 r lb;
#X msg 451 77 0.5;
#X msg 861 -62 read -resize sound.wav sample1;
#X msg 808 -143 read -resize hihat.wav hihat;
#X obj 215 213 key;
#X obj 215 240 sel 122;
#X obj 321 216 key;
#X obj 321 243 sel 120;
#X obj 432 215 key;
#X obj 432 242 sel 99;
#X obj 538 218 key;
#X obj 538 245 sel 118;
#X obj 69 -232 bng 15 250 50 0 empty empty empty 17 7 0 10 -262144
-1 -1;
#X msg 946 -4 1;
#X obj 77 -21 print;
#X obj 137 -266 udpreceive 7007;
#X connect 1 0 7 0;
#X connect 1 0 9 1;
#X connect 3 0 6 0;
#X connect 4 0 3 0;
#X connect 6 0 1 0;
#X connect 7 0 12 0;
#X connect 8 0 9 0;
#X connect 8 0 10 0;
#X connect 9 0 17 0;
#X connect 10 0 11 0;
#X connect 11 0 25 0;
#X connect 11 0 40 0;
#X connect 12 0 8 0;
#X connect 13 0 15 0;
#X connect 15 0 12 0;
#X connect 15 1 12 1;
#X connect 17 0 18 0;
#X connect 18 0 20 0;
#X connect 20 0 19 0;
#X connect 20 0 19 1;
#X connect 21 0 22 0;
#X connect 22 0 20 1;
#X connect 23 0 18 1;
#X connect 24 0 149 0;
#X connect 26 0 23 0;
#X connect 27 0 8 0;
#X connect 28 0 12 0;
#X connect 31 0 32 0;
#X connect 32 0 127 0;
#X connect 34 0 35 0;
#X connect 39 0 13 0;
#X connect 41 0 10 0;
#X connect 42 0 122 0;
#X connect 43 0 123 0;
#X connect 44 0 124 0;
#X connect 45 0 125 0;
#X connect 46 0 126 0;
#X connect 47 0 38 0;
#X connect 48 0 49 0;
#X connect 50 0 51 0;
#X connect 51 0 27 0;
#X connect 51 1 28 0;
#X connect 52 0 53 0;
#X connect 53 0 78 0;
#X connect 55 0 62 0;
#X connect 56 0 84 0;
#X connect 58 0 56 0;
#X connect 59 0 57 0;
#X connect 59 0 57 1;
#X connect 60 0 59 1;
#X connect 62 0 54 0;
#X connect 66 0 67 0;
#X connect 67 0 79 0;
#X connect 69 0 150 0;
#X connect 70 0 71 0;
#X connect 71 0 81 0;
#X connect 73 0 80 0;
#X connect 74 0 75 0;
#X connect 75 0 83 0;
#X connect 77 0 82 0;
#X connect 78 0 54 0;
#X connect 79 0 68 0;
#X connect 80 0 72 0;
#X connect 81 0 72 0;
#X connect 82 0 76 0;
#X connect 83 0 76 0;
#X connect 84 0 59 0;
#X connect 85 0 58 0;
#X connect 86 0 134 0;
#X connect 88 0 86 0;
#X connect 89 0 87 0;
#X connect 89 0 87 1;
#X connect 90 0 89 1;
#X connect 91 0 136 0;
#X connect 93 0 91 0;
#X connect 94 0 92 0;
#X connect 94 0 92 1;
#X connect 95 0 94 1;
#X connect 96 0 135 0;
#X connect 98 0 96 0;
#X connect 99 0 97 0;
#X connect 99 0 97 1;
#X connect 100 0 99 1;
#X connect 101 0 88 0;
#X connect 102 0 93 0;
#X connect 103 0 98 0;
#X connect 104 0 59 1;
#X connect 105 0 89 1;
#X connect 106 0 94 1;
#X connect 107 0 99 1;
#X connect 109 0 139 0;
#X connect 110 0 117 0;
#X connect 111 0 137 0;
#X connect 112 0 118 0;
#X connect 119 0 121 0;
#X connect 122 0 130 0;
#X connect 123 0 131 0;
#X connect 124 0 132 0;
#X connect 125 0 133 0;
#X connect 127 0 48 0;
#X connect 127 1 42 0;
#X connect 127 2 43 0;
#X connect 127 3 44 0;
#X connect 127 4 45 0;
#X connect 127 5 46 0;
#X connect 127 6 47 0;
#X connect 127 7 128 0;
#X connect 127 8 128 1;
#X connect 127 9 128 2;
#X connect 127 10 128 3;
#X connect 127 11 128 4;
#X connect 127 12 128 5;
#X connect 127 13 128 6;
#X connect 127 14 128 7;
#X connect 127 15 128 8;
#X connect 127 16 128 9;
#X connect 127 17 128 10;
#X connect 127 18 128 11;
#X connect 127 19 128 12;
#X connect 127 20 128 13;
#X connect 128 0 129 0;
#X connect 134 0 89 0;
#X connect 135 0 99 0;
#X connect 136 0 94 0;
#X connect 138 0 140 0;
#X connect 140 0 109 0;
#X connect 141 0 142 0;
#X connect 142 0 110 0;
#X connect 143 0 144 0;
#X connect 144 0 111 0;
#X connect 145 0 146 0;
#X connect 146 0 112 0;
#X connect 147 0 148 0;
#X connect 148 0 119 0;
#X connect 149 0 1 0;
#X connect 150 0 68 0;
#X connect 151 0 152 0;
#X connect 152 0 56 0;
#X connect 153 0 154 0;
#X connect 154 0 86 0;
#X connect 155 0 156 0;
#X connect 156 0 91 0;
#X connect 157 0 158 0;
#X connect 158 0 96 0;
#X connect 159 0 35 0;
#X connect 160 0 13 0;
#X connect 162 0 31 0;
#X connect 162 0 161 0;
